<?xml version="1.0" encoding="UTF-8"?>
<svg width="80px" height="80px" viewBox="0 0 80 80" version="1.1" xmlns="http://www.w3.org/2000/svg" xmlns:xlink="http://www.w3.org/1999/xlink">
    <!-- Generator: Sketch 62 (91390) - https://sketch.com -->
    <title>default_app_icon</title>
    <desc>Created with Sketch.</desc>
    <defs>
        <path d="M60.9375,0 C72.5,0 80,7.5 80,19.0625 L80,60.9375 C80,72.5 72.5,80 60.9375,80 L19.0625,80 C7.5,80 0,72.5 0,60.9375 L0,19.0625 C0,7.5 7.5,0 19.0625,0 L60.9375,0 Z" id="path-1"></path>
    </defs>
    <g id="Page-1" stroke="none" stroke-width="1" fill="none" fill-rule="evenodd">
        <g id="default_app_icon">
            <g id="Mask-Copy" fill="#F1F3F6" fill-rule="nonzero">
                <path d="M60.9375,1.3636435e-15 C72.5,1.3636435e-15 80,7.5 80,19.0625 L80,60.9375 C80,72.5 72.5,80 60.9375,80 L19.0625,80 C7.5,80 0,72.5 0,60.9375 L0,19.0625 C0,7.5 7.5,1.3636435e-15 19.0625,1.3636435e-15 L60.9375,1.3636435e-15 Z" id="path-1"></path>
            </g>
            <g id="Group-4-Clipped">
                <mask id="mask-2" fill="white">
                    <use xlink:href="#path-1"></use>
                </mask>
                <g id="path-1"></g>
                <g id="Group-11" mask="url(#mask-2)">
                    <g transform="translate(19.000000, 19.000000)">
                        <polygon id="Fill-1" fill="#D9D9D9" points="21.2337 0.00015 0.0002 10.31565 14.8992 17.70515 37.1587 5.65965"></polygon>
                        <polygon id="Fill-2" fill="#ECECEC" points="14.89905 17.7045 21.13405 41.7605 41.66055 28.7085 37.15855 5.66"></polygon>
                        <polygon id="Fill-3" fill="#9C9B9B" points="6.56145 32.4024 21.13395 41.7614 21.13445 41.7614 14.89945 17.7049 0.00045 10.3154"></polygon>
                        <g id="Group-10" stroke-width="1" fill="none" transform="translate(0.500000, 4.761500)">
                            <path d="M31.95055,15.7444 C32.13055,15.7039 32.30555,15.7169 32.41505,15.5209 C32.49405,15.3784 32.72405,15.1054 32.69505,14.9144 C32.65655,14.6494 32.61455,14.3839 32.57855,14.1179 C32.56105,13.9854 32.39305,13.5314 32.26155,13.6919 C32.24605,13.7234 32.23955,13.7589 32.24255,13.7939 C32.25255,14.0184 32.30755,14.1349 32.20355,14.3229 C32.12655,14.4624 31.98955,14.8569 31.83855,14.8904 C31.76955,14.9054 31.61005,14.9004 31.55505,14.9539 C31.48605,15.0164 31.51005,15.0984 31.52305,15.1854 C31.56005,15.4374 31.68555,15.8039 31.95105,15.7444 M32.85405,17.0319 C32.66055,16.8509 32.45305,16.6849 32.25305,16.5114 C32.21405,16.4779 32.07955,16.3364 32.02955,16.3814 C31.98805,16.4194 31.84455,16.6579 31.90455,16.7104 C31.96305,16.7789 32.06155,16.8459 32.10155,16.8809 L32.50555,17.2304 C32.54455,17.2639 32.64755,17.3644 32.70655,17.3529 C32.76555,17.3414 32.92755,17.1009 32.85405,17.0319 M32.78955,12.9554 C32.83555,12.9954 32.96055,12.7669 32.96305,12.7234 C32.97605,12.6434 32.83705,12.5109 32.78705,12.5154 C32.72705,12.5204 32.61555,12.7039 32.61305,12.7474 C32.60405,12.8394 32.75505,12.9514 32.78955,12.9554 M33.15855,13.7184 C33.22855,13.7794 33.42055,13.4294 33.42455,13.3629 C33.44455,13.2399 33.23155,13.0369 33.15455,13.0439 C33.06255,13.0524 32.89255,13.3329 32.88905,13.3999 C32.87405,13.5399 33.10605,13.7119 33.15855,13.7184 M9.49855,16.7889 C9.43955,16.7549 9.26255,16.8729 9.34855,16.9454 C9.54755,17.0944 9.63355,17.1769 9.67455,17.2129 C9.91055,17.4139 10.02005,17.5364 10.09455,17.5094 C10.14105,17.4854 10.28055,17.3729 10.19005,17.2889 C10.13055,17.2369 10.10355,17.2189 10.02505,17.1639 C9.77655,16.9934 9.66355,16.8839 9.49855,16.7889 M10.48255,17.5649 C10.44455,17.5779 10.33555,17.6584 10.35755,17.7129 C10.36655,17.7484 10.49405,17.8429 10.55755,17.8304 C10.58905,17.8234 10.70505,17.7339 10.68255,17.6819 C10.67305,17.6569 10.52905,17.5474 10.48255,17.5649 M39.21555,21.6279 C39.16305,21.6924 39.13355,21.7784 39.05555,21.8924 C39.00455,21.9659 38.58855,22.5829 38.67555,22.6794 C38.73255,22.7429 38.90555,22.9349 38.95355,22.8494 C39.00605,22.7619 39.08155,22.6174 39.11505,22.5584 C39.26005,22.2974 39.55405,21.9139 39.49505,21.7714 C39.47605,21.7209 39.28305,21.5369 39.21505,21.6279 M39.88455,21.0109 C39.86455,20.9614 39.68655,20.7909 39.60605,20.8409 C39.56555,20.8644 39.42105,21.1309 39.46105,21.2044 C39.49455,21.2639 39.65555,21.4244 39.74005,21.3744 C39.79705,21.3504 39.92105,21.1139 39.88455,21.0109 M36.95655,22.1799 C36.91655,22.2029 36.75905,22.4784 36.81205,22.5439 C36.84705,22.5864 37.01505,22.7574 37.09005,22.7129 C37.13105,22.6904 37.27655,22.4379 37.23505,22.3494 C37.21505,22.2994 37.02855,22.1389 36.95655,22.1794 M34.35455,15.5324 C34.47355,15.5449 34.62705,15.4714 34.74505,15.4454 C34.94605,15.4004 35.01055,15.7239 35.03555,15.8919 C35.07155,16.1364 35.08105,16.3804 35.30455,16.4759 C35.49455,16.5539 35.68955,16.3884 35.77055,16.2409 C35.82055,16.1524 35.92905,16.0639 36.01755,16.1404 C36.05555,16.1574 36.19755,16.3439 36.23505,16.3134 C36.27055,16.2849 36.19205,15.9534 36.18405,15.9019 C36.16655,15.7814 36.02255,15.7019 35.95105,15.6404 C35.86405,15.5649 35.74905,15.4169 35.64155,15.3874 C35.53355,15.3574 35.40355,15.4909 35.30405,15.4009 C35.13205,15.2449 34.96755,15.0004 34.74505,15.0499 C34.65755,15.0694 33.99555,15.1369 33.97805,15.2449 C33.96555,15.3239 34.28905,15.5469 34.35455,15.5324 M33.26655,16.2629 C33.35755,16.2089 33.53505,15.9359 33.50655,15.8019 C33.48855,15.7219 33.22855,15.4419 33.10455,15.5044 C32.99455,15.5759 32.84455,15.8569 32.86505,15.9654 C32.88755,16.0844 33.18605,16.3104 33.26655,16.2629 M25.38455,19.4664 C25.31655,19.4484 25.01705,20.0644 25.00055,20.1629 C24.97855,20.2964 25.06355,20.4354 25.04055,20.5684 C25.01905,20.6939 24.91205,20.8219 24.85455,20.9249 C24.79305,21.0349 24.87805,21.1579 24.89155,21.4054 C24.90005,21.5634 25.03955,21.6489 25.14805,21.7159 C25.35505,21.8434 25.64005,21.5254 25.66605,21.2534 C25.68455,20.9824 25.57355,20.6209 25.53455,20.3549 C25.52105,20.2669 25.46855,19.4884 25.38455,19.4664 M32.74005,11.2634 C32.72505,11.2234 32.63805,11.2284 32.58155,11.2914 C32.52255,11.3759 32.48955,11.4754 32.48605,11.5779 C32.48605,11.6504 32.56305,11.7484 32.64505,11.7384 C32.75755,11.7084 32.78705,11.3769 32.74005,11.2634 M28.10605,14.6079 C28.07905,14.6239 27.99855,14.7764 28.00905,14.8604 C28.01655,14.9229 28.09655,14.9989 28.17055,14.9814 C28.25205,14.9499 28.29055,14.8529 28.23655,14.7599 C28.21855,14.7264 28.15155,14.5764 28.10655,14.6079 M31.12055,15.4849 C31.10655,15.3894 31.10805,15.1949 31.03555,15.1309 L30.49905,14.6559 C30.45105,14.6144 30.03905,14.1869 29.97905,14.2119 C29.89755,14.2464 29.96255,14.6729 30.11655,14.8119 C30.31155,14.9879 30.51905,15.1494 30.71955,15.3184 C30.89855,15.4679 30.81355,15.6634 30.90055,15.8784 C30.91555,15.9794 31.35455,16.3794 31.39805,16.3449 C31.45355,16.2999 31.33455,15.7999 31.27205,15.7459 C31.18055,15.6674 31.14005,15.6209 31.12005,15.4849 M34.51655,7.0844 C34.55755,7.0614 34.72305,6.8259 34.66155,6.7214 C34.62705,6.6634 34.48755,6.5019 34.38305,6.5519 C34.34305,6.5744 34.20005,6.8039 34.23855,6.9149 C34.25855,6.9649 34.42505,7.1174 34.51655,7.0849 M33.78705,8.8769 C33.85905,8.7469 34.09355,8.7134 34.20005,8.6834 C34.39105,8.6334 34.47505,8.4094 34.50755,8.3084 C34.55455,8.1634 34.54655,8.0179 34.52505,7.8769 C34.50905,7.7669 34.46555,7.5464 34.36355,7.3979 C34.34005,7.3599 34.19355,7.1739 34.11605,7.2224 C34.00955,7.2874 34.20955,7.7909 34.19605,8.0389 C34.18755,8.2154 33.97705,8.3164 33.87355,8.3589 C33.74855,8.4114 33.64355,8.4689 33.57855,8.5924 C33.51955,8.7034 33.13705,9.3614 33.17755,9.4544 C33.21755,9.5439 33.38755,9.4679 33.44005,9.4364 C33.52005,9.3879 33.58755,9.2564 33.63405,9.1724 C33.71555,9.0259 33.70605,9.0234 33.78705,8.8769 M19.14105,11.2249 C19.17755,11.2034 19.28605,11.0034 19.23255,10.9574 C19.19555,10.9259 19.06255,10.7634 19.01755,10.8429 C18.98155,10.8644 18.87355,11.0644 18.92655,11.1099 C18.94355,11.1554 19.10455,11.2909 19.14155,11.2249 M16.99755,8.0034 C17.04155,8.0884 17.00805,8.2194 17.08255,8.2839 C17.21105,8.3954 17.30755,8.5589 17.27855,8.7779 C17.26755,8.8629 16.95755,9.2514 17.13905,9.3304 C17.20905,9.3604 17.26255,9.0894 17.33405,9.0739 C17.42905,9.0144 17.56605,9.0629 17.65905,8.9889 C17.85205,8.8339 17.84755,8.5239 17.66955,8.3759 L17.34055,8.1024 C17.17555,7.9649 17.37555,7.8829 17.35455,7.7449 C17.33255,7.5939 17.15355,7.6739 17.08805,7.6174 C17.01305,7.5724 17.05705,7.2749 16.94555,7.3124 C16.91955,7.3204 16.83955,7.4694 16.83255,7.4939 C16.79555,7.5609 16.81855,7.7389 16.84455,7.8059 C16.89055,7.8949 16.95655,7.9244 16.99755,8.0034 M8.88705,4.4829 C9.02805,4.5419 9.22705,4.4484 9.36555,4.4179 C9.71805,4.3389 9.93005,4.2569 10.24205,4.5269 C10.47105,4.7249 10.76855,4.9054 10.96355,5.1519 C11.08005,5.2524 11.08255,5.4989 11.10505,5.6539 C11.13805,5.8789 11.17005,6.1024 11.20405,6.3269 C11.23355,6.5309 11.37905,6.5604 11.48305,6.6869 C11.62205,6.8069 11.62005,7.1584 11.64705,7.3419 C11.69905,7.6984 12.12805,7.9234 12.34705,8.1129 C12.50105,8.2459 12.74705,8.2699 12.90355,8.1129 C13.11355,7.9009 13.04505,7.6179 13.00355,7.3349 C12.96855,7.0929 13.07505,6.9559 13.17855,6.7689 L13.58105,6.0449 C13.69105,5.8449 13.88605,5.8479 14.06405,5.8084 C14.29905,5.7554 14.39405,5.6934 14.53155,5.4464 C14.66155,5.2119 14.72055,5.0844 14.67855,4.7979 C14.64855,4.5934 14.51805,4.1739 14.62605,3.9799 C14.71505,3.8189 14.78805,3.6699 14.72905,3.4664 C14.70855,3.3279 14.62205,3.3039 14.55705,3.2169 C14.46105,3.1344 14.45505,2.9819 14.43605,2.8534 C14.37855,2.4634 14.83455,2.2054 14.86505,1.8369 C14.88155,1.6389 14.81255,1.5269 14.66155,1.5604 L14.08405,1.6894 C13.97205,1.7144 13.84405,1.7679 13.73005,1.7684 C13.56355,1.8059 13.36005,1.5569 13.23955,1.4444 C13.05355,1.2704 12.62305,1.4444 12.37605,1.4994 C12.15755,1.5479 11.60605,1.6384 11.52105,1.7944 C11.35005,2.1059 11.25105,2.3894 10.94055,2.4594 L9.89005,2.6944 C9.62855,2.7524 9.45305,3.2724 9.31505,3.5194 C9.22655,3.6804 9.11855,3.7059 8.97105,3.7394 C8.77605,3.7824 8.70605,3.8894 8.59605,4.0854 C8.51105,4.2389 8.78705,4.4414 8.88705,4.4829 M8.10055,6.8744 C8.26655,6.9694 8.32455,7.1314 8.35555,7.3394 C8.38105,7.5179 8.36955,7.7339 8.49655,7.8439 C8.61155,7.9679 8.75355,8.0664 8.87855,8.1739 C9.13005,8.3919 9.44355,8.6834 9.74705,8.3774 C9.98705,8.1359 9.80055,7.7424 9.61055,7.5774 C9.51555,7.4949 9.46805,7.3109 9.48055,7.1669 C9.49055,7.0469 9.69555,6.8079 9.58055,6.7084 C9.33455,6.4949 9.08805,6.2814 8.84105,6.0684 C8.67655,5.9259 8.35605,5.5169 8.13005,5.5674 L7.16905,5.7819 C7.00905,5.8169 6.58405,6.4349 6.76005,6.5869 L7.14005,6.9154 C7.27005,7.0284 7.48305,6.9284 7.62205,6.8969 C7.75555,6.8669 7.97405,6.7659 8.10005,6.8744 M5.69055,5.9444 C5.64405,5.9669 5.43555,6.3484 5.49455,6.3994 C5.54455,6.4429 5.81005,6.7374 5.86105,6.6459 C5.90755,6.6229 6.11605,6.2419 6.05655,6.1904 C6.03805,6.1319 5.73155,5.8704 5.69055,5.9444 M5.98705,5.7259 C6.00455,5.7739 6.20355,5.9459 6.24205,5.8759 C6.28105,5.8539 6.41805,5.6074 6.36155,5.5584 C6.32155,5.5234 6.15305,5.3234 6.10605,5.4084 C6.06755,5.4299 5.93055,5.6769 5.98705,5.7259 M2.73855,7.2009 C2.85655,7.3034 2.95205,7.2989 3.08505,7.2694 C3.26005,7.2294 3.43505,7.1909 3.60955,7.1519 C3.73205,7.1244 3.91155,7.0439 4.02555,7.1429 C4.26055,7.3464 4.41155,7.5379 4.70405,7.4724 L5.18705,7.3644 C5.34355,7.3294 5.40455,7.1824 5.48805,7.0324 C5.60605,6.8189 5.04905,6.4794 4.90705,6.5114 C4.69355,6.5589 4.22355,6.7894 4.02455,6.6174 C3.92155,6.5274 3.81405,6.4014 3.70055,6.3364 C3.58855,6.2399 3.41955,6.3154 3.29955,6.3424 L2.83605,6.4459 C2.68305,6.4799 2.61055,6.6784 2.53005,6.8234 C2.42805,7.0064 2.63705,7.1134 2.73855,7.2009 M5.29405,5.7574 L5.64805,5.1644 C5.68305,5.1059 6.02355,4.6424 5.98405,4.5624 C5.94455,4.4834 5.46405,4.6549 5.40405,4.6684 C5.22155,4.7089 5.01105,4.7044 4.89705,4.9099 C4.81955,5.0499 4.50305,5.4419 4.67355,5.5899 C4.83605,5.7304 5.11505,6.0579 5.29405,5.7574 M6.69105,5.3559 C6.86505,5.5059 7.36455,5.4569 7.49605,5.2189 C7.56305,5.0989 7.65905,4.9739 7.70605,4.8409 C7.79155,4.6874 7.71355,4.4339 7.68955,4.2689 C7.66205,4.0824 7.79505,3.9174 7.87305,3.7764 C7.96905,3.6039 8.12505,3.6579 8.26205,3.5949 C8.41055,3.5619 8.50205,3.3089 8.57805,3.1709 C8.65805,3.0284 8.53005,3.0664 8.45805,3.0824 L7.47105,3.3029 C7.27155,3.3479 7.01755,3.3399 6.89305,3.5644 L6.37805,4.4929 C6.18305,4.8439 6.48955,5.1804 6.69105,5.3554 M13.71405,29.7104 C13.68655,29.7149 13.55805,29.8074 13.57555,29.8719 C13.58405,29.9139 13.69505,30.0159 13.73155,30.0054 C13.75755,29.9984 13.89855,29.9004 13.88555,29.8389 C13.88155,29.7954 13.76655,29.6949 13.71405,29.7104 M7.51855,8.2144 C7.47205,8.2374 7.26355,8.6184 7.32255,8.6694 C7.34155,8.7279 7.64805,8.9894 7.68905,8.9159 C7.72305,8.8539 7.95905,8.5244 7.88455,8.4604 C7.86605,8.4024 7.55955,8.1404 7.51855,8.2144" id="Fill-4" fill="#003E75"></path>
                            <path d="M21.76355,11.3281 C21.80855,11.2756 21.81255,11.2596 21.80805,11.2416 C21.80405,11.2236 21.78205,11.2321 21.76005,11.2456 C21.72955,11.2646 21.69505,11.2761 21.65955,11.2806 C21.63305,11.2806 21.60205,11.2991 21.59755,11.3206 C21.59505,11.3326 21.59455,11.3841 21.63355,11.3876 C21.70955,11.3946 21.74305,11.3526 21.76355,11.3281 M15.25555,6.0596 C15.16855,6.0796 14.97705,6.0736 14.92005,6.1766 C14.84955,6.2486 14.79605,6.4001 14.74455,6.4931 C14.67255,6.6221 14.66005,6.6551 14.76905,6.7496 C14.89905,6.8621 15.24005,6.9521 15.35555,6.7436 C15.44805,6.5786 15.67005,6.3551 15.49755,6.2056 C15.42955,6.1471 15.34605,6.0391 15.25555,6.0596 M15.10555,20.0406 C15.04255,19.9496 14.93655,19.8836 14.85955,19.8176 C14.52605,19.5276 14.18855,19.2386 13.85505,18.9491 C13.62055,18.7436 13.51105,18.6846 13.22505,18.7511 C12.89855,18.8241 12.57255,18.8976 12.24605,18.9676 C11.94605,19.0366 11.76955,18.4616 11.45105,18.5311 C11.09905,18.6081 10.74705,18.6886 10.39605,18.7656 C10.35505,18.7766 10.31105,18.7806 10.27455,18.8056 C10.20455,18.8496 10.09455,19.1491 10.01005,19.1416 C9.92605,19.1346 9.80305,19.0196 9.73755,18.9656 C9.40755,18.6866 9.10455,18.4391 8.77505,18.1641 C8.69805,18.0946 8.63005,18.0586 8.55305,17.9446 C8.47405,17.8281 8.49305,17.2921 8.33955,17.3246 C8.08655,17.3841 7.57355,17.6031 7.50005,17.1091 C7.44505,16.7391 7.27305,16.2291 7.55505,15.9436 C7.65755,15.8411 7.83705,15.8411 7.95805,15.8116 C8.13805,15.7751 8.31355,15.7346 8.49005,15.6946 C8.70555,15.6466 9.15005,16.3616 9.24805,15.8596 C9.28055,15.6556 8.99155,15.4926 8.91855,15.4306 C8.75705,15.2906 8.74205,15.1336 8.70555,14.9026 C8.65455,14.5326 9.01705,14.2391 9.13105,13.9316 C9.24105,13.7301 9.07955,13.4916 9.13505,13.2791 C9.17505,13.1326 9.28505,12.9891 9.35505,12.8651 C9.46505,12.6671 9.57405,12.4651 9.68805,12.2641 C9.76105,12.1356 9.86405,12.0001 9.83855,11.8276 C9.80905,11.6116 9.77255,11.4576 9.87855,11.2671 C9.98105,11.0836 10.04755,10.9556 10.23405,10.9116 C10.57455,10.8381 10.88305,10.7866 11.00755,10.3141 C11.04405,10.1711 11.00405,9.9071 10.96005,9.7716 C10.93405,9.5996 10.75855,9.4931 10.65605,9.4051 C10.49405,9.2661 10.33705,9.1301 10.17605,8.9911 C10.07655,8.9031 9.95905,8.7636 9.82355,8.7931 L8.93355,8.9911 C8.78255,9.0241 8.69105,9.2696 8.61455,9.4126 C8.51505,9.5886 8.54855,9.7311 8.57755,9.9291 L8.66555,10.5376 C8.68355,10.6621 8.53055,11.1056 8.38655,10.9886 C8.32455,10.9701 8.24755,10.8711 8.19305,10.8271 C8.03055,10.6911 7.86705,10.5566 7.70155,10.4241 L6.83305,9.7091 C6.63855,9.5516 6.58805,9.0531 6.71605,8.8226 C6.87705,8.5366 7.21105,8.1476 7.15605,7.7741 C7.12605,7.5941 7.12605,7.3636 6.99405,7.2466 C6.84755,7.1181 6.69755,6.9896 6.55105,6.8616 C6.36405,6.7001 6.44105,7.0301 6.46305,7.1616 C6.49205,7.3676 6.40805,7.6756 6.21805,7.7191 C5.95305,7.8401 5.61955,7.8511 5.34455,7.9136 C5.16155,7.9536 4.97855,7.9936 4.79505,8.0346 C4.69255,8.0566 4.56505,8.1116 4.45805,8.0676 C4.20505,7.9611 4.01105,7.5176 3.72105,7.5836 C3.36605,7.6606 3.01105,7.7411 2.65805,7.8181 C2.56705,7.8401 2.45705,7.8431 2.36855,7.8841 C2.16755,7.9281 2.14555,8.2726 1.97355,8.3791 C1.60355,8.6101 1.35355,8.3461 1.06055,8.0931 C0.82255,7.8876 0.60605,8.0016 0.33555,8.0601 C0.30555,8.0676 0.27905,8.0741 0.24955,8.0776 L0.94955,10.4341 C1.08555,10.4011 1.22155,10.3726 1.35755,10.3431 C1.58855,10.2921 1.75305,10.5081 1.93255,10.6661 C2.27205,10.9566 2.61055,11.2481 2.94805,11.5411 C3.09455,11.6661 3.38455,11.8276 3.41705,12.0731 C3.54205,12.9231 3.67005,13.7776 3.79455,14.6316 C3.83105,14.8846 3.83855,15.1916 3.91155,15.4341 C3.95205,15.7056 4.39555,15.9511 4.55005,16.0866 C4.86505,16.3576 5.17655,16.6291 5.48805,16.9001 C5.56105,16.9626 5.66355,17.0871 5.74055,16.9476 C5.84705,16.7571 5.83605,16.6801 5.69305,16.5521 C5.40355,16.3021 5.11405,16.0536 4.82405,15.8006 C4.71905,15.7091 4.82405,15.4121 4.94555,15.3866 C5.02605,15.3681 5.15055,15.5216 5.20955,15.5736 L6.18805,16.4201 C6.39705,16.5991 6.61305,16.7131 6.66055,17.0431 C6.71955,17.4391 6.70455,17.8456 6.98705,18.0876 L7.40105,18.4471 C7.53255,18.5601 7.70905,18.4796 7.85155,18.4471 C7.95805,18.4251 8.27055,18.3221 8.37305,18.3956 C8.46505,18.4541 8.54555,18.5381 8.63005,18.6121 C8.96005,18.8936 9.20005,19.1086 9.53005,19.3941 C9.63255,19.4821 9.73005,19.5646 9.83255,19.6531 C9.96805,19.7696 9.79455,20.0331 9.73255,20.1476 C9.65505,20.2866 9.48655,20.4991 9.51255,20.6856 C9.51255,20.8221 9.55605,20.9721 9.57405,21.1041 C9.63655,21.5396 9.70255,21.9801 9.76905,22.4156 C9.80905,22.7131 10.23805,22.9476 10.41405,23.1006 C10.58205,23.2446 10.97805,23.4606 11.01905,23.7431 L11.16105,24.7216 C11.28205,25.5461 11.40355,26.3701 11.52405,27.1956 C11.55005,27.3711 11.44005,27.5141 11.36305,27.6451 C11.28205,27.7966 11.27905,27.9131 11.30405,28.0821 C11.37405,28.5401 11.44005,28.9981 11.50605,29.4561 C11.56105,29.8161 11.89105,29.9846 12.11105,30.1751 C12.21355,30.2661 12.35255,30.4316 12.48855,30.4026 C12.56155,30.4026 12.64955,30.3656 12.72255,30.3506 C12.82505,30.3251 13.09655,30.3286 13.17355,30.2301 C13.23205,30.1566 12.87355,29.8926 12.84005,29.8636 C12.71905,29.7571 12.59105,29.6766 12.56155,29.4781 C12.52155,29.2071 12.33805,28.6286 12.47705,28.3756 C12.85105,27.7006 13.22855,27.0266 13.60205,26.3486 C13.77455,26.0366 13.47405,25.6446 13.63555,25.3556 C13.82255,25.0221 14.00555,24.6886 14.19255,24.3551 C14.28055,24.1976 14.41955,24.1936 14.55905,24.1601 C14.74955,24.1196 14.85955,24.0911 14.97305,23.8896 C15.05005,23.7496 15.17805,23.5926 15.14905,23.4091 C15.12305,23.2226 15.09405,23.0386 15.06905,22.8561 C15.03505,22.6206 14.99905,22.3861 14.96605,22.1521 C14.94405,22.0056 14.89605,21.8331 14.96955,21.6971 C15.06105,21.5366 15.14955,21.3791 15.23705,21.2171 C15.32455,21.0596 15.25205,20.8181 15.22605,20.6496 C15.20005,20.4696 15.20005,20.1916 15.10505,20.0406 M37.21905,19.1341 C37.18905,18.9361 36.94555,18.8086 36.82655,18.7056 C36.67605,18.5761 36.39155,18.4236 36.29005,18.2261 C36.23655,18.1251 36.23905,17.9501 36.22205,17.8341 C36.20505,17.7166 36.07905,17.6491 36.00855,17.5881 C35.91755,17.5096 35.96055,17.3176 35.91855,17.2096 C35.90955,17.1416 35.69855,16.9096 35.64555,16.9516 C35.58905,16.9966 35.69755,17.4401 35.70655,17.5016 C35.73055,17.6676 35.79755,17.8726 35.67805,18.0076 C35.55055,18.2376 35.00155,17.7681 34.97405,17.5786 C34.95355,17.4391 34.84355,17.1761 34.69305,17.2091 C34.52405,17.1941 34.44405,17.4336 34.36505,17.5761 C34.26205,17.7621 34.24955,17.8231 34.08905,17.6836 C33.92555,17.5431 33.86905,17.7916 33.77855,17.9536 C33.69055,18.1136 33.74055,18.2591 33.76705,18.4411 C33.79655,18.6426 33.68505,18.7686 33.59605,18.9291 C33.43505,19.2196 33.02605,18.9891 32.87205,19.2676 C32.79555,19.4056 32.68505,19.5326 32.71055,19.7081 C32.73655,19.8846 32.73405,20.1481 32.79855,20.3076 C32.82255,20.4716 33.02605,20.4736 33.05155,20.6461 L33.15155,21.3331 C33.18005,21.5216 33.20555,21.5831 33.33455,21.6951 C33.51205,21.8481 33.49205,21.6076 33.61305,21.4856 C33.69605,21.3361 33.92405,21.4636 34.00705,21.3141 C34.10955,21.2101 34.12205,20.9861 34.27055,20.9531 C34.40155,20.9241 34.57405,20.8416 34.70705,20.8556 C34.84205,20.8256 34.96455,21.0786 35.08055,21.1286 C35.21005,21.2406 35.36405,21.0736 35.43055,20.9531 C35.53705,20.7621 35.57755,20.5406 35.76055,20.6996 C36.00005,20.9061 35.80055,21.4871 36.02055,21.6776 C36.10955,21.7546 36.27205,21.9676 36.39055,21.9406 L36.90505,21.8256 C37.00705,21.8026 37.12755,21.5906 37.16005,21.4756 C37.23255,21.3451 37.12355,20.9976 37.10305,20.8596 C37.05305,20.5206 37.39905,20.3606 37.35105,20.0346 L37.21905,19.1346 M19.01205,7.6651 C19.01705,7.6421 19.04155,7.5981 19.00555,7.5926 C18.97405,7.5881 18.92405,7.5936 18.90205,7.6316 C18.88955,7.6546 18.87505,7.7036 18.90955,7.7091 C18.93955,7.7136 19.00405,7.7001 19.01205,7.6651 M16.61955,9.1881 C16.74905,9.1591 16.97405,8.9706 16.94355,8.7651 C16.92355,8.6281 16.94055,8.3441 16.79055,8.3776 C16.60255,8.4211 16.46555,8.5826 16.45355,8.7751 C16.44455,8.9251 16.47355,9.2201 16.61955,9.1881" id="Fill-6" fill="#003E75"></path>
                            <path d="M30.4906,13.2649 C30.6496,13.4559 30.5706,13.7089 30.5331,13.9189 C30.5076,14.0589 30.5561,14.2189 30.6081,14.2909 C30.6461,14.3359 30.6846,14.3684 30.7101,14.3909 L30.9031,14.5569 C30.9281,14.5789 30.9931,14.6349 31.0321,14.6359 C31.1706,14.6399 31.2041,14.4834 31.1261,14.4309 C31.0011,14.3414 30.8851,14.2404 30.7791,14.1289 C30.7026,14.0424 30.6941,13.6159 30.7691,13.5739 C30.8036,13.5599 30.8431,13.5664 30.8716,13.5904 C30.9851,13.6894 31.0841,13.8174 31.1866,13.6269 C31.2816,13.4584 31.1766,13.0184 31.0191,12.8829 C30.9311,12.7729 30.6741,12.6929 30.7881,12.4909 C30.8726,12.3409 30.9676,12.0659 31.1281,12.0289 C31.4031,11.9669 31.6896,11.9814 31.8581,11.6809 C32.0631,11.3034 32.2721,10.9294 32.4811,10.5559 C32.6026,10.3359 32.5951,9.7419 32.3971,9.5734 L31.5946,8.8809 C31.4221,8.7309 31.9021,7.9314 32.0266,8.0379 C32.1366,8.0744 32.2716,8.2504 32.3641,8.3309 C32.4441,8.4009 32.6536,8.6644 32.7711,8.6389 C32.8771,8.6169 33.0456,8.2614 32.9361,8.1699 C32.7961,8.0489 32.6461,7.9719 32.7676,7.7519 C32.8476,7.6089 32.9246,7.4109 33.0271,7.2869 C33.1411,7.0849 33.3831,7.2094 33.5006,6.9969 C33.6321,6.7589 33.9656,6.3629 33.9176,6.0439 C33.8851,5.8314 33.8556,5.6189 33.8226,5.4064 C33.8006,5.2414 33.7971,4.9594 33.6761,4.8529 C33.5626,4.7179 33.3861,4.6769 33.3541,4.4569 C33.3136,4.1969 33.3541,4.0794 33.4711,3.8669 C33.5476,3.7319 33.6356,3.4824 33.7861,3.4494 C33.9326,3.4164 34.0796,3.3869 34.2261,3.3544 C34.4971,3.2914 34.9371,3.3099 35.1091,2.9984 C35.2156,2.8114 35.2891,2.7234 35.4721,2.6834 C35.6886,2.6354 35.7356,2.6574 35.7761,2.9289 C35.8056,3.1229 35.8386,3.2739 35.7431,3.4494 C35.6591,3.5994 35.4646,3.8379 35.4941,4.0394 C35.4941,4.3874 35.6041,4.7794 35.6551,5.1204 C35.6736,5.2559 35.8901,5.5269 35.9886,5.3479 C36.0951,5.1609 36.1976,4.9704 36.3036,4.7834 C36.3736,4.6514 36.5166,4.4754 36.4911,4.2994 C36.4871,4.1494 36.4431,3.9804 36.4211,3.8344 C36.3846,3.5919 36.3511,3.3544 36.3146,3.1159 C36.2926,2.9579 36.2416,2.7859 36.3221,2.6429 C36.4211,2.4669 36.4911,2.3679 36.6631,2.3279 C36.7366,2.3129 36.8366,2.3054 36.9281,2.2799 L36.6581,0.8984 L35.0046,0.3104 C34.9636,0.3049 34.9221,0.3064 34.8821,0.3154 L33.9916,0.5134 L32.7561,0.7884 C32.5586,0.8324 32.3346,0.9274 32.1331,0.9274 C31.8331,0.9974 31.6461,0.3999 31.3306,0.4694 C30.9856,0.5464 30.6416,0.6269 30.2966,0.7044 C30.0736,0.7519 29.7656,0.9094 29.5606,0.7369 C29.4141,0.6124 29.2636,0.4879 29.1171,0.3629 C29.0066,0.2714 28.8496,0.0809 28.7021,0.1139 C28.4131,0.1179 27.1521,0.3489 27.0241,0.5794 C26.6721,1.2134 26.3201,1.8474 25.9686,2.4779 C25.8331,2.7269 25.3086,2.7159 25.1001,2.7639 C24.9641,2.7929 24.8286,2.8224 24.6931,2.8554 C24.5461,2.8884 24.4731,3.0824 24.3996,3.2219 C24.3191,3.3649 24.2461,3.5519 24.1466,3.6769 C24.0661,3.8194 23.8686,3.8229 23.7441,3.8484 L23.1536,3.9804 C23.0286,4.0104 22.8346,4.0104 22.7536,4.1564 C22.5231,4.4349 22.5086,4.7794 22.1606,4.8599 C21.9846,4.8969 21.8086,4.9369 21.6326,4.9774 C21.4601,5.0144 21.3396,4.8639 21.2041,4.7504 C21.1456,4.6989 21.0241,4.6219 21.0866,4.5044 C21.1161,4.4164 21.1856,4.3474 21.2736,4.3174 C21.3211,4.2959 21.5781,4.2994 21.5036,4.1639 C21.4571,4.0839 21.3576,4.0244 21.2956,3.9739 C21.1706,3.8669 21.0536,3.7239 20.8926,3.7609 C20.7421,3.7939 20.4816,3.9184 20.3466,3.7974 C20.2106,3.7204 20.1411,3.5589 19.9726,3.5959 C19.7896,3.6359 19.6096,3.6799 19.4266,3.7209 C19.1666,3.7789 19.0781,4.0319 18.9386,4.2884 C18.7081,4.6989 18.4806,5.1094 18.2536,5.5199 C18.0921,5.8129 18.0081,5.9489 18.0596,6.3114 L18.1471,6.9014 C18.1656,7.0369 18.3891,7.3014 18.5101,7.2719 C18.5726,7.2629 18.6311,7.2279 18.6896,7.2319 C18.8031,7.2519 18.8371,7.3374 18.9496,7.3419 C19.0821,7.3449 19.3236,7.2829 19.4041,7.1434 C19.4961,6.9714 19.5621,6.8539 19.5291,6.6449 C19.5031,6.4549 19.3021,6.2474 19.3021,6.0569 C19.2721,5.8624 19.4486,5.6469 19.5251,5.5069 C19.6246,5.3274 19.8551,5.0984 20.0571,5.1239 C20.3186,5.1574 20.4141,5.3154 20.2921,5.5509 C20.1516,5.8234 19.7571,5.8489 19.7596,6.4044 C19.7606,6.6659 19.9771,6.6624 20.1481,6.6524 C20.3781,6.6384 20.4076,6.7484 20.3751,7.0054 C20.3646,7.0884 20.3046,7.1904 20.2316,7.2859 C20.1206,7.4194 19.9401,7.3589 19.8056,7.4684 C19.7041,7.5694 19.8041,7.6584 19.6451,7.7659 C19.5661,7.8194 19.4741,7.8339 19.4151,7.8474 C19.3171,7.8694 19.1636,7.8874 19.0026,7.9164 C18.9376,7.9229 18.8736,7.8989 18.8291,7.8509 C18.8131,7.8324 18.8136,7.8159 18.8211,7.7979 C18.8331,7.7694 18.8416,7.7394 18.8461,7.7084 C18.8651,7.5764 18.6881,7.4264 18.6321,7.4789 C18.5956,7.5139 18.5101,7.6524 18.5521,7.7254 C18.5946,7.7989 18.6791,7.8619 18.7031,7.9269 C18.7131,7.9544 18.7011,7.9894 18.6631,8.0039 C18.5141,8.0599 18.4281,8.1089 18.3671,8.2189 C18.1506,8.6039 18.3286,8.9089 17.9971,9.3354 C17.9321,9.4184 17.9111,9.5269 17.8356,9.6284 C17.7331,9.8119 17.8606,10.0534 17.8606,10.2484 C17.9496,10.8489 17.2496,10.5484 17.0991,10.8194 C16.9856,10.9369 16.9926,11.0834 17.0186,11.2444 C17.0296,11.3364 17.0476,11.7869 17.1176,11.8309 C17.2421,11.9159 17.3046,12.0329 17.4511,11.9999 C17.5976,11.9669 17.8061,11.9779 17.8946,11.8164 C17.9346,11.7469 18.0011,11.6624 18.0156,11.5744 C18.0336,11.4684 17.9641,11.3659 18.0191,11.2629 C18.1141,11.0944 18.2091,10.9219 18.3051,10.7499 C18.4111,10.5559 18.5981,10.6434 18.7301,10.5079 C18.8476,10.3904 18.8731,10.1304 19.0561,10.2879 C19.2061,10.4164 19.3561,10.5484 19.5071,10.6764 C19.5401,10.7024 19.6096,10.8084 19.6936,11.0504 C19.7196,11.1219 19.6856,11.3604 19.7561,11.3769 C19.8246,11.3919 19.8991,11.1349 19.9176,11.1019 C19.9686,11.0104 19.9286,10.8234 19.9611,10.7754 C19.9831,10.7464 20.0936,10.7684 20.0751,10.6544 C20.0716,10.6254 19.9431,10.5194 19.9431,10.5154 C19.9431,10.5119 19.6026,10.2184 19.5841,10.2039 C19.4961,10.1269 19.2356,9.9874 19.3341,9.8119 C19.4666,9.5734 19.5511,9.6834 19.7086,9.8189 C19.8516,9.9439 19.9946,10.0644 20.1336,10.1894 C20.2726,10.3099 20.3326,10.5114 20.3061,10.7024 C20.2836,10.8659 20.5396,11.2164 20.6661,11.1234 C20.8011,11.0424 20.6471,10.6619 20.7901,10.5449 C20.8851,10.4714 21.0941,10.4019 21.0611,10.1899 C21.0501,10.1299 21.0241,10.0354 21.0391,9.9584 C21.0501,9.8814 21.1121,9.8044 21.1456,9.7419 C21.2001,9.6469 21.3176,9.3169 21.4056,9.2729 C21.5141,9.2229 21.7206,9.5229 21.8416,9.3029 C21.8961,9.2129 21.9516,9.0279 22.1311,8.9869 C22.3181,8.9469 22.3761,9.0129 22.5306,9.1444 C22.6406,9.2399 22.7906,9.3169 22.8166,9.4929 C22.8386,9.6539 22.8826,9.9839 22.6846,10.0279 C22.5636,10.1014 22.3731,10.0979 22.2376,10.1269 C22.0871,10.1599 22.0141,9.9144 21.8676,9.9474 C21.7466,9.9729 21.5866,9.9574 21.5376,10.1049 C21.4361,10.4099 21.2776,10.4484 21.1716,10.6389 C21.1126,10.7489 21.0716,11.0709 21.1596,11.1444 C21.3171,11.2799 21.5561,11.1679 21.7346,11.1274 C22.1606,11.0324 22.3621,11.5634 22.3036,11.8974 C22.2656,12.1124 21.6071,12.2309 21.4676,12.1724 C21.3066,12.1059 21.2446,11.9559 21.0576,11.9999 C20.9106,12.0329 20.6686,12.0289 20.5736,12.2014 C20.4931,12.3444 20.4086,12.5754 20.2581,12.6084 C20.1156,12.6409 19.8661,12.7584 19.7341,12.6409 C19.6056,12.5679 19.4851,12.4249 19.3676,12.3259 C19.2026,12.1829 19.2796,11.9079 19.1151,11.7649 C18.9826,11.6514 18.8291,11.7214 18.6861,11.7549 C18.5396,11.7834 18.3126,11.7834 18.1951,11.9049 C18.0741,12.0219 18.0376,12.2379 17.9201,12.3554 C17.7951,12.4804 17.5641,12.4759 17.4146,12.5094 C17.1686,12.5644 16.9161,13.1249 16.9561,13.4109 C17.0221,13.8469 16.8136,14.0814 16.6226,14.4259 C16.4871,14.6679 16.1866,15.0269 16.2341,15.3459 C16.2926,15.7529 16.3516,16.1559 16.4141,16.5634 C16.4541,16.8484 16.8901,17.0904 17.0591,17.2369 C17.2161,17.3729 17.3706,17.5044 17.5241,17.6399 C17.6236,17.7249 17.7366,17.8599 17.8651,17.8354 C18.1066,17.8354 18.5361,17.7574 18.6826,17.4974 C18.7776,17.3214 18.8436,17.1749 19.0226,17.1344 C19.1811,17.1014 19.3786,17.0059 19.5221,17.1309 C19.7636,17.3469 19.9581,17.4644 20.0091,17.8349 L20.2181,19.2494 C20.2511,19.4764 20.2511,20.0744 20.4306,20.2279 C20.5256,20.3484 20.6756,20.4004 20.7641,20.5319 C20.8341,20.6384 20.8371,20.8034 20.8556,20.9319 C20.9256,21.4119 20.9991,21.8954 21.0681,22.3759 C21.1231,22.7384 21.1676,22.8739 21.4166,23.0904 C21.6291,23.2739 21.9041,23.6404 22.1791,23.5774 C22.5231,23.5014 22.8681,23.4234 23.2121,23.3474 C23.4721,23.2879 23.6411,22.7859 23.7806,22.5374 C23.8571,22.3979 23.8206,22.2544 23.7986,22.1004 L23.6886,21.3494 C23.6336,20.9799 23.9196,20.6499 24.0776,20.3594 C24.1466,20.2394 24.2566,20.0959 24.2311,19.9309 C24.1981,19.7184 24.1686,19.5029 24.1361,19.2894 C24.1101,19.1174 24.1031,18.9634 23.9786,18.8534 C23.8281,18.7249 23.6961,18.6409 23.6596,18.4024 C23.6336,18.2309 23.5716,18.0219 23.6596,17.8639 L23.9786,17.2924 C24.0586,17.1454 24.1361,16.9329 24.2901,16.9004 C24.4696,16.8599 24.5721,16.5699 24.6641,16.4049 C24.7591,16.2299 24.8726,16.0864 24.8391,15.8629 C24.8251,15.7819 24.7956,15.2214 24.7226,15.1994 C24.6526,15.1809 24.4696,15.6134 24.4366,15.6719 C24.3306,15.8629 24.1801,15.8669 24.0116,15.9029 C23.7401,15.9654 23.3741,15.4929 23.1681,15.3129 C23.0731,15.2284 22.9411,15.1479 22.9156,14.9869 C22.8856,14.7779 22.8536,14.5689 22.8241,14.3599 C22.7761,14.0339 22.2961,13.7774 22.0981,13.6084 C21.9776,13.5024 21.9661,13.3519 21.9441,13.1834 C21.9151,13.0039 21.8156,12.6784 21.9076,12.5054 C21.9996,12.2819 22.1791,12.3404 22.2626,12.5494 C22.3401,12.7329 22.3401,12.9964 22.3696,13.1944 C22.4281,13.5944 22.7691,13.6524 22.9741,13.9129 C23.2381,14.1399 23.0181,14.7594 23.2891,14.9904 C23.4031,15.0929 23.5311,15.2509 23.6671,15.3059 C23.7916,15.3569 24.0481,15.2984 24.1656,15.2249 C24.2646,15.1624 24.3231,15.0124 24.3816,14.9024 C24.5016,14.6864 24.6236,14.4699 24.7446,14.2539 C24.9131,13.9494 25.1471,13.6744 25.0266,13.2789 C24.9496,12.7654 24.4146,13.0954 24.1876,12.9014 C24.0406,12.7724 23.8926,12.6439 23.7441,12.5164 C23.6926,12.4689 23.6081,12.4029 23.6636,12.3039 C23.6816,12.2124 23.7986,12.0474 23.8786,12.1169 C23.9971,12.1499 24.1436,12.3444 24.2421,12.4319 C24.3746,12.5459 24.5906,12.4429 24.7301,12.4139 C24.8726,12.3809 25.0486,12.3004 25.1771,12.4139 C25.3341,12.5494 25.4441,12.5239 25.6206,12.4869 L26.1076,12.3774 C26.2616,12.3444 26.4266,12.5494 26.5436,12.6484 C26.6536,12.7439 26.7931,12.8244 26.8186,13.0074 C26.8521,13.2349 26.8846,13.4659 26.9176,13.6964 C26.9426,13.8469 26.9471,14.0154 27.0611,14.1114 C27.2106,14.2429 27.3576,14.3714 27.5076,14.4994 C27.6401,14.6129 27.7206,14.7044 27.8341,14.5029 C27.9516,14.2864 27.9111,14.1184 27.8741,13.8764 C27.8191,13.5064 28.1526,13.1139 28.3106,12.8319 C28.3756,12.7109 28.4386,12.5459 28.5341,12.4504 C28.6406,12.3404 28.9556,12.2674 29.0726,12.3734 C29.2051,12.4469 29.3326,12.5974 29.4506,12.6999 C29.4906,12.7329 29.5346,12.7874 29.5826,12.8134 C29.7046,12.8904 29.7656,12.8284 29.8676,12.8319 C30.0221,12.8439 30.1421,12.9524 30.2411,13.0409 C30.3291,13.1159 30.4906,13.2649 30.4906,13.2649" id="Fill-8" fill="#003E75"></path>
                        </g>
                    </g>
                </g>
            </g>
        </g>
    </g>
</svg>