<?xml version="1.0" encoding="UTF-8"?>
<svg width="20px" height="22px" viewBox="0 0 20 22" version="1.1" xmlns="http://www.w3.org/2000/svg" xmlns:xlink="http://www.w3.org/1999/xlink">
    <!-- Generator: Sketch 52.4 (67378) - http://www.bohemiancoding.com/sketch -->
    <title>logout</title>
    <desc>Created with Sketch.</desc>
    <g id="Page-1" stroke="none" stroke-width="1" fill="none" fill-rule="evenodd">
        <g id="003-Landing" transform="translate(-341.000000, -46.000000)" fill="#FFFFFF">
            <g id="header">
                <g id="logout" transform="translate(341.000000, 46.233766)">
                    <path d="M19.8217193,9.90809781 L15.9622246,5.89997664 C15.7238176,5.65238874 15.3414667,5.65238874 15.1031047,5.89997664 C14.8646976,6.14756455 14.8646976,6.54463949 15.1031047,6.79222739 L17.9279579,9.72591049 L5.60726316,9.72591049 C5.26989474,9.72591049 5,10.0061987 5,10.3565589 C5,10.7069192 5.26989474,10.9872074 5.60726316,10.9872074 L17.9279579,10.9872074 L15.1031047,13.9208905 C14.8646976,14.1684784 14.8646976,14.5655533 15.1031047,14.8131412 C15.2200141,14.9345994 15.3774527,15 15.530438,15 C15.6833334,15 15.840772,14.9392709 15.9577713,14.8131412 L19.8172211,10.80502 C20.0601713,10.5527607 20.0601713,10.1510142 19.8217193,9.90809781" id="Fill-4"></path>
                    <path d="M9.31385569,20.2007034 L3.87339531,20.2007034 C2.39486498,20.2007034 1.19521912,18.96374 1.19521912,17.4493694 L1.19521912,3.97920204 C1.19521912,2.46028377 2.39929172,1.22786806 3.87339531,1.22786806 L9.40239044,1.22786806 C9.73439575,1.22786806 10,0.955008489 10,0.613934029 C10,0.272859568 9.73439575,0 9.40239044,0 L3.87339531,0 C1.7352811,0 0,1.78723017 0,3.97920204 L0,17.4493694 C0,19.6458889 1.73970784,21.4285714 3.87339531,21.4285714 L9.31385569,21.4285714 C9.645861,21.4285714 9.91146525,21.1557119 9.91146525,20.8146374 C9.91146525,20.4735629 9.64143426,20.2007034 9.31385569,20.2007034" id="Fill-1"></path>
                </g>
            </g>
        </g>
    </g>
</svg>