<?xml version="1.0" encoding="UTF-8"?>
<svg width="868px" height="252px" viewBox="0 0 868 252" version="1.1" xmlns="http://www.w3.org/2000/svg" xmlns:xlink="http://www.w3.org/1999/xlink">
    <title>logo</title>
    <defs>
        <polygon id="path-1" points="8.99136378 24.6928572 93.0177667 0 70.0809473 35.3118104 0 56.4363278"></polygon>
        <linearGradient x1="0.000611418209%" y1="49.9994362%" x2="100.00036%" y2="49.9994362%" id="linearGradient-3">
            <stop stop-color="#779CF4" offset="0%"></stop>
            <stop stop-color="#D693F9" offset="100%"></stop>
        </linearGradient>
        <path d="M5.44650841,0 C2.43895843,0 0,2.44811066 0,5.46863112 L0,5.46863112 L0,5.47136338 L0,138.530003 C0,141.550523 2.43759817,144 5.44378787,144 L5.44378787,144 L5.44650841,144 L137.935138,144 C140.941328,144 143.381646,141.551889 143.381646,138.531369 L143.381646,138.531369 L143.381646,138.530003 L143.381646,5.47136338 C143.381646,2.45084292 140.944048,0 137.937858,0 L137.937858,0 L5.44650841,0 Z M5.44650841,138.530003 L137.935138,138.530003 L137.935138,5.47136338 L5.44650841,5.47136338 L5.44650841,138.530003 Z" id="path-4"></path>
        <linearGradient x1="0%" y1="50.0001097%" x2="99.9997807%" y2="50.0001097%" id="linearGradient-6">
            <stop stop-color="#779CF4" offset="0%"></stop>
            <stop stop-color="#D693F9" offset="100%"></stop>
        </linearGradient>
        <path d="M21.8227608,0 C9.78984041,0 0,9.83069436 0,21.9168746 L0,21.9168746 C0,34.0030548 9.78984041,43.8337492 21.8227608,43.8337492 L21.8227608,43.8337492 L49.3382384,43.8337492 C61.3711588,43.8337492 71.1609992,34.0030548 71.1609992,21.9168746 L71.1609992,21.9168746 C71.1609992,9.83069436 61.3711588,0 49.3382384,0 L49.3382384,0 L21.8227608,0 Z" id="path-7"></path>
        <linearGradient x1="-0.000924417938%" y1="50.0000739%" x2="100%" y2="50.0000739%" id="linearGradient-9">
            <stop stop-color="#779CF4" offset="0%"></stop>
            <stop stop-color="#D693F9" offset="100%"></stop>
        </linearGradient>
        <path d="M25.9226051,0 L23.3476199,4.04375421 L20.8352071,0 L16.2796735,0 L20.9793954,7.057444 L16.0756335,14.3621581 L20.5277868,14.3621581 L23.2864079,10.0137562 L26.0232648,14.3621581 L30.5787984,14.3621581 L25.677757,6.99596801 L30.3747584,0 L25.9226051,0 Z M11.01136,0 L7.59845054,5.56152817 L4.18962185,0 L0,0 L0,14.3621581 L3.88220155,14.3621581 L3.88220155,6.13393797 L7.51819479,11.7378163 L7.59845054,11.7378163 L11.2575683,6.11481211 L11.2575683,14.3621581 L15.1996216,14.3621581 L15.1996216,0 L11.01136,0 Z" id="path-10"></path>
        <linearGradient x1="0.00154092527%" y1="50.0051051%" x2="100.002625%" y2="50.0051051%" id="linearGradient-12">
            <stop stop-color="#779CF4" offset="0%"></stop>
            <stop stop-color="#D693F9" offset="100%"></stop>
        </linearGradient>
    </defs>
    <g id="logo" stroke="none" stroke-width="1" fill="none" fill-rule="evenodd">
        <g id="Group">
            <path d="M195.227756,100.519914 L195.227756,73.3697241 L225.904489,73.3697241 L225.904489,100.519914 L237.201609,100.519914 L237.201609,36.0957345 L225.904489,36.0957345 L225.904489,62.8777863 L195.227756,62.8777863 L195.227756,36.0957345 L183.930636,36.0957345 L183.930636,100.519914 L195.227756,100.519914 Z M282.05332,101.624329 C294.085212,101.624329 301.432933,97.2066706 308.137728,90.2120454 L300.881854,82.849282 C295.371063,88.0032164 290.319506,91.1323908 282.420706,91.1323908 C270.113274,91.1323908 261.204163,80.9165566 261.204163,68.3078243 L261.204163,68.1237552 C261.204163,55.5150229 270.205121,45.3912233 282.420706,45.3912233 C289.768427,45.3912233 295.279217,48.6124322 300.422621,53.3982284 L307.678495,45.0230851 C301.524779,39.1328744 294.360752,34.99132 282.512553,34.99132 C263.041093,34.99132 249.355964,49.9929504 249.355964,68.3078243 L249.355964,68.4918934 C249.355964,86.9908364 263.316633,101.624329 282.05332,101.624329 Z M363.551787,100.519914 L363.551787,90.2120454 L329.752272,90.2120454 L329.752272,36.0957345 L318.455152,36.0957345 L318.455152,100.519914 L363.551787,100.519914 Z M431.028353,100.980087 L457.66384,36.0957345 L445.448255,36.0957345 L426.160488,85.6103183 L406.780875,36.0957345 L394.289751,36.0957345 L421.017084,100.980087 L431.028353,100.980087 Z M482.493012,101.624329 C497.463993,101.624329 508.485573,90.1200108 508.485573,76.3148295 L508.485573,76.1307604 C508.485573,62.2335445 497.555839,50.9132958 482.676705,50.9132958 C467.797571,50.9132958 456.77599,62.4176136 456.77599,76.3148295 L456.77599,76.4988986 C456.77599,90.3040799 467.705725,101.624329 482.493012,101.624329 Z M482.676705,91.8686671 C474.043133,91.8686671 467.889418,84.7820074 467.889418,76.3148295 L467.889418,76.1307604 C467.889418,67.6635825 473.583901,60.6689573 482.493012,60.6689573 C491.21843,60.6689573 497.372146,67.755617 497.372146,76.3148295 L497.372146,76.4988986 C497.372146,84.8740419 491.677663,91.8686671 482.676705,91.8686671 Z M530.008271,100.519914 L530.008271,33.3346982 L518.894844,33.3346982 L518.894844,100.519914 L530.008271,100.519914 Z M559.246076,101.348225 C563.471015,101.348225 566.50195,100.42788 569.257345,98.8632924 L569.257345,89.7518727 C567.053029,90.8562872 564.848713,91.4084944 562.368857,91.4084944 C558.60315,91.4084944 556.398834,89.6598381 556.398834,85.3342146 L556.398834,61.4972682 L569.441038,61.4972682 L569.441038,51.9256758 L556.398834,51.9256758 L556.398834,38.5806671 L545.285407,38.5806671 L545.285407,51.9256758 L539.131691,51.9256758 L539.131691,61.4972682 L545.285407,61.4972682 L545.285407,87.0828709 C545.285407,97.7588778 551.071737,101.348225 559.246076,101.348225 Z M617.629838,100.519914 L617.629838,54.502643 L637.744223,84.6899728 L638.111609,84.6899728 L658.409687,54.3185739 L658.409687,100.519914 L669.706807,100.519914 L669.706807,36.0957345 L657.674915,36.0957345 L638.111609,66.559168 L618.548303,36.0957345 L606.516411,36.0957345 L606.516411,100.519914 L617.629838,100.519914 Z M692.790896,100.519914 L709.690653,75.9466913 L726.682257,100.519914 L740,100.519914 L716.670987,67.571548 L739.081535,36.0957345 L726.131178,36.0957345 L710.058039,59.4725082 L694.076747,36.0957345 L680.759003,36.0957345 L703.077704,67.755617 L679.840538,100.519914 L692.790896,100.519914 Z" id="HCLVoltMX" fill="#000000" fill-rule="nonzero"></path>
            <g id="Group-Copy">
                <polygon id="Fill-1" fill="#12191F" points="5.44650841 138.531369 137.935138 138.531369 137.935138 5.47136338 5.44650841 5.47136338"></polygon>
                <polygon id="Fill-2" fill="#93A2AD" points="98.5450749 18.1102811 98.8429734 17.7769446 46.1897647 32.7005835 37.2351282 64.5779351 79.2510502 52.6693521"></polygon>
                <polygon id="Fill-3" fill="#93A2AD" points="65.888741 103.88992 57.8862912 127.851896 84.5896894 98.2518884"></polygon>
                <g id="Group-6" transform="translate(25.130930, 51.393930)">
                    <mask id="mask-2" fill="white">
                        <use xlink:href="#path-1"></use>
                    </mask>
                    <g id="Clip-5"></g>
                    <polygon id="Fill-4" fill="url(#linearGradient-3)" mask="url(#mask-2)" points="8.99136378 24.6928572 93.0177667 0 70.0809473 35.3118104 0 56.4363278"></polygon>
                </g>
                <g id="Group-9">
                    <mask id="mask-5" fill="white">
                        <use xlink:href="#path-4"></use>
                    </mask>
                    <g id="Clip-8"></g>
                    <path d="M5.44650841,0 C2.43895843,0 0,2.44811066 0,5.46863112 L0,5.46863112 L0,5.47136338 L0,138.530003 C0,141.550523 2.43759817,144 5.44378787,144 L5.44378787,144 L5.44650841,144 L137.935138,144 C140.941328,144 143.381646,141.551889 143.381646,138.531369 L143.381646,138.531369 L143.381646,138.530003 L143.381646,5.47136338 C143.381646,2.45084292 140.944048,0 137.937858,0 L137.937858,0 L5.44650841,0 Z M5.44650841,138.530003 L137.935138,138.530003 L137.935138,5.47136338 L5.44650841,5.47136338 L5.44650841,138.530003 Z" id="Fill-7" fill="url(#linearGradient-6)" mask="url(#mask-5)"></path>
                </g>
                <g id="Group-12" transform="translate(90.710754, 86.907928)">
                    <mask id="mask-8" fill="white">
                        <use xlink:href="#path-7"></use>
                    </mask>
                    <g id="Clip-11"></g>
                    <path d="M21.8227608,0 C9.78984041,0 0,9.83069436 0,21.9168746 L0,21.9168746 C0,34.0030548 9.78984041,43.8337492 21.8227608,43.8337492 L21.8227608,43.8337492 L49.3382384,43.8337492 C61.3711588,43.8337492 71.1609992,34.0030548 71.1609992,21.9168746 L71.1609992,21.9168746 C71.1609992,9.83069436 61.3711588,0 49.3382384,0 L49.3382384,0 L21.8227608,0 Z" id="Fill-10" fill="url(#linearGradient-9)" mask="url(#mask-8)"></path>
                </g>
                <path d="M140.049129,125.977425 L112.532291,125.977425 C103.1002,125.977425 95.4541406,118.29839 95.4541406,108.824256 C95.4541406,99.351489 103.1002,91.6724544 112.532291,91.6724544 L140.049129,91.6724544 C149.481219,91.6724544 157.127279,99.351489 157.127279,108.824256 C157.127279,118.29839 149.481219,125.977425 140.049129,125.977425" id="Fill-13" fill="#12191F"></path>
                <g id="Group-17" transform="translate(111.269827, 102.350698)">
                    <mask id="mask-11" fill="white">
                        <use xlink:href="#path-10"></use>
                    </mask>
                    <g id="Clip-16"></g>
                    <path d="M25.9226051,0 L23.3476199,4.04375421 L20.8352071,0 L16.2796735,0 L20.9793954,7.057444 L16.0756335,14.3621581 L20.5277868,14.3621581 L23.2864079,10.0137562 L26.0232648,14.3621581 L30.5787984,14.3621581 L25.677757,6.99596801 L30.3747584,0 L25.9226051,0 Z M11.01136,0 L7.59845054,5.56152817 L4.18962185,0 L0,0 L0,14.3621581 L3.88220155,14.3621581 L3.88220155,6.13393797 L7.51819479,11.7378163 L7.59845054,11.7378163 L11.2575683,6.11481211 L11.2575683,14.3621581 L15.1996216,14.3621581 L15.1996216,0 L11.01136,0 Z" id="Fill-15" fill="url(#linearGradient-12)" mask="url(#mask-11)"></path>
                </g>
            </g>
        </g>
        <text id="Enterprise-App-Store" font-family="HelveticaNeue-Light, Helvetica Neue" font-size="73" font-weight="300" fill="#000000">
            <tspan x="178.5" y="224.81375">Enterprise App Store</tspan>
        </text>
    </g>
</svg>