<?xml version="1.0" encoding="UTF-8"?>
<svg width="1890px" height="4096px" viewBox="0 0 1890 4096" version="1.1" xmlns="http://www.w3.org/2000/svg" xmlns:xlink="http://www.w3.org/1999/xlink">
    <title>splash_screen</title>
    <defs>
        <filter id="filter-1">
            <feColorMatrix in="SourceGraphic" type="matrix" values="0 0 0 0 0.039216 0 0 0 0 0.403922 0 0 0 0 0.694118 0 0 0 1.000000 0"></feColorMatrix>
        </filter>
        <polygon id="path-2" points="0 0 95.7657083 0 95.7657083 40.7378356 0 40.7378356"></polygon>
        <polygon id="path-4" points="17.4386134 47.604817 180.406544 0 135.920932 68.0768636 0 108.802356"></polygon>
        <linearGradient x1="0.000611418209%" y1="49.9994362%" x2="100.00036%" y2="49.9994362%" id="linearGradient-6">
            <stop stop-color="#779CF4" offset="0%"></stop>
            <stop stop-color="#D693F9" offset="100%"></stop>
        </linearGradient>
        <path d="M10.5634203,0 C4.7303228,0 0,4.71965876 0,10.5428538 L0,10.5428538 L0,10.5481213 L0,267.068949 C0,272.892144 4.72768459,277.614437 10.5581438,277.614437 L10.5581438,277.614437 L10.5634203,277.614437 L267.523103,277.614437 C273.353562,277.614437 278.086523,272.894778 278.086523,267.071583 L278.086523,267.071583 L278.086523,267.068949 L278.086523,10.5481213 C278.086523,4.72492623 273.358838,0 267.528379,0 L267.528379,0 L10.5634203,0 Z M10.5634203,267.068949 L267.523103,267.068949 L267.523103,10.5481213 L10.5634203,10.5481213 L10.5634203,267.068949 Z" id="path-7"></path>
        <linearGradient x1="0%" y1="50.0001097%" x2="99.9997807%" y2="50.0001097%" id="linearGradient-9">
            <stop stop-color="#779CF4" offset="0%"></stop>
            <stop stop-color="#D693F9" offset="100%"></stop>
        </linearGradient>
        <path d="M42.3249129,0 C18.9872466,0 0,18.9523797 0,42.2530611 L0,42.2530611 C0,65.5537424 18.9872466,84.5061221 42.3249129,84.5061221 L42.3249129,84.5061221 L95.6907632,84.5061221 C119.028429,84.5061221 138.015676,65.5537424 138.015676,42.2530611 L138.015676,42.2530611 C138.015676,18.9523797 119.028429,0 95.6907632,0 L95.6907632,0 L42.3249129,0 Z" id="path-10"></path>
        <linearGradient x1="-0.000924417938%" y1="50.0000739%" x2="100%" y2="50.0000739%" id="linearGradient-12">
            <stop stop-color="#779CF4" offset="0%"></stop>
            <stop stop-color="#D693F9" offset="100%"></stop>
        </linearGradient>
        <path d="M50.2764984,0 L45.2823539,7.79586491 L40.4095674,0 L31.5741792,0 L40.6892184,13.6058913 L31.1784467,27.6884891 L39.8133304,27.6884891 L45.1636342,19.3053006 L50.4717265,27.6884891 L59.3071147,27.6884891 L49.8016194,13.487373 L58.9113822,0 L50.2764984,0 Z M21.3563654,0 L14.7370793,10.721948 L8.12570789,0 L0,0 L0,27.6884891 L7.52947088,27.6884891 L7.52947088,11.8254843 L14.5814245,22.6290781 L14.7370793,22.6290781 L21.8338826,11.7886119 L21.8338826,27.6884891 L29.479435,27.6884891 L29.479435,0 L21.3563654,0 Z" id="path-13"></path>
        <linearGradient x1="0.00154092527%" y1="50.0051051%" x2="100.002625%" y2="50.0051051%" id="linearGradient-15">
            <stop stop-color="#779CF4" offset="0%"></stop>
            <stop stop-color="#D693F9" offset="100%"></stop>
        </linearGradient>
    </defs>
    <g id="Page-1" stroke="none" stroke-width="1" fill="none" fill-rule="evenodd">
        <g id="Desktop-Common" transform="translate(-110.000000, -2730.000000)">
            <g id="splash_screen" transform="translate(110.000000, 2730.000000)">
                <rect id="Rectangle" fill="#FFFFFF" x="-1.13686838e-13" y="0" width="1890" height="4096"></rect>
                <g id="Group-3-Copy" transform="translate(342.562500, 3617.156250)">
                    <g id="Group-2" transform="translate(292.541667, 0.000000)">
                        <text id="Powered-by" font-family="HelveticaNeue, Helvetica Neue" font-size="61.95" font-weight="normal" letter-spacing="-1.03250003" fill="#91969C">
                            <tspan x="13.5144918" y="59">Powered by</tspan>
                        </text>
                        <g filter="url(#filter-1)" id="Group-9">
                            <g transform="translate(347.083079, 17.482345)" id="Group-8">
                                <polygon id="Fill-1" fill="#FFFFFF" points="75.3797175 1.36750655 69.9114164 14.2191215 40.6488907 14.2191215 46.1807176 1.36750655 16.5929397 1.36750655 0 39.4488017 0 39.4540634 29.6055651 39.4540634 36.2732334 24.274162 65.5687926 24.274162 58.9748142 39.4224934 89.2054733 39.4224934 105.798413 1.36750655"></polygon>
                                <g id="Group-7" transform="translate(104.577903, 0.000000)">
                                    <g id="Group-4">
                                        <mask id="mask-3" fill="white">
                                            <use xlink:href="#path-2"></use>
                                        </mask>
                                        <g id="Clip-3"></g>
                                        <path d="M67.4992671,14.3190932 L95.7657083,14.3190932 C95.5725898,7.92617106 89.6240337,3.33273815 77.7904471,1.73582304 C54.4409031,-1.8289545 29.1982901,-0.297810198 11.1899955,9.99137429 C-2.99150469,18.1495848 -4.05111508,30.40137 10.0643183,36.3944056 C21.9639717,41.387725 46.916907,41.9191531 64.7320831,38.7910937 C76.3395178,36.6259189 85.1518171,32.7980581 90.1042887,26.9049941 L61.164474,26.9049941 C56.9895583,30.0014835 51.9532326,31.5905061 46.8203478,31.4326562 C30.7406966,31.4326562 28.4588497,26.4709068 31.2895595,20.6146745 C34.5065062,13.7192634 41.7077912,9.95980431 52.4487339,9.65988944 C60.9052887,9.42574538 65.0878276,11.3567762 67.4027079,14.2848923 L67.4992671,14.3190932 Z" id="Fill-2" fill="#FFFFFF" mask="url(#mask-3)"></path>
                                    </g>
                                    <polygon id="Fill-5" fill="#FFFFFF" points="140.91375 1.36776963 128.30769 30.3674323 170.788665 30.3674323 166.832278 39.4227565 93.8360485 39.4227565 110.266362 1.36776963"></polygon>
                                </g>
                            </g>
                        </g>
                    </g>
                    <text id="©-2021-HCL-Technolog" font-family="HelveticaNeue, Helvetica Neue" font-size="60.9588" font-weight="normal" letter-spacing="-1.28855997" fill="#91969C">
                        <tspan x="5.26130582" y="156.079268">© 2021 HCL Technologies. All rights reserved.</tspan>
                    </text>
                </g>
                <g id="Group" transform="translate(224.437500, 1736.445423)">
                    <path d="M378.641265,193.790134 L378.641265,141.447879 L438.138322,141.447879 L438.138322,193.790134 L460.048915,193.790134 L460.048915,69.5881736 L438.138322,69.5881736 L438.138322,121.220703 L378.641265,121.220703 L378.641265,69.5881736 L356.730672,69.5881736 L356.730672,193.790134 L378.641265,193.790134 Z M547.038126,195.919311 C570.373798,195.919311 584.624591,187.402605 597.628438,173.917821 L583.555781,159.723311 C572.867687,169.659468 563.070267,175.692134 547.750666,175.692134 C523.880589,175.692134 506.601503,155.997252 506.601503,131.689154 L506.601503,131.334291 C506.601503,107.026193 524.058724,87.5087422 547.750666,87.5087422 C562.001458,87.5087422 572.689552,93.7188402 582.665107,102.945272 L596.737764,86.7990167 C584.802725,75.4434089 570.908203,67.4589971 547.928801,67.4589971 C510.164201,67.4589971 483.622101,96.3803108 483.622101,131.689154 L483.622101,132.044017 C483.622101,167.707722 510.698606,195.919311 547.038126,195.919311 Z M705.103163,193.790134 L705.103163,173.917821 L639.549519,173.917821 L639.549519,69.5881736 L617.638926,69.5881736 L617.638926,193.790134 L705.103163,193.790134 Z M835.972938,194.677291 L887.63206,69.5881736 L863.940118,69.5881736 L826.531788,165.046252 L788.945324,69.5881736 L764.718977,69.5881736 L816.556234,194.677291 L835.972938,194.677291 Z M935.787862,195.919311 C964.823851,195.919311 986.200039,173.740389 986.200039,147.125683 L986.200039,146.770821 C986.200039,119.978683 965.001986,98.1546245 936.144131,98.1546245 C907.286277,98.1546245 885.910089,120.333546 885.910089,147.125683 L885.910089,147.480546 C885.910089,174.095252 907.108142,195.919311 935.787862,195.919311 Z M936.144131,177.111585 C919.399451,177.111585 907.464412,163.44937 907.464412,147.125683 L907.464412,146.770821 C907.464412,130.447134 918.508776,116.96235 935.787862,116.96235 C952.710677,116.96235 964.645716,130.624566 964.645716,147.125683 L964.645716,147.480546 C964.645716,163.626801 953.601352,177.111585 936.144131,177.111585 Z M1027.94298,193.790134 L1027.94298,64.2652324 L1006.38866,64.2652324 L1006.38866,193.790134 L1027.94298,193.790134 Z M1084.64926,195.387017 C1092.84347,195.387017 1098.72192,193.612703 1104.06597,190.59637 L1104.06597,173.030664 C1099.79073,175.15984 1095.51549,176.224428 1090.70585,176.224428 C1083.40232,176.224428 1079.12708,172.853232 1079.12708,164.513958 L1079.12708,118.559232 L1104.42224,118.559232 L1104.42224,100.10637 L1079.12708,100.10637 L1079.12708,74.3788206 L1057.57276,74.3788206 L1057.57276,100.10637 L1045.63772,100.10637 L1045.63772,118.559232 L1057.57276,118.559232 L1057.57276,167.885154 C1057.57276,188.467193 1068.79526,195.387017 1084.64926,195.387017 Z M1197.88368,193.790134 L1197.88368,105.074448 L1236.89523,163.271938 L1237.60776,163.271938 L1276.97558,104.719585 L1276.97558,193.790134 L1298.88617,193.790134 L1298.88617,69.5881736 L1275.5505,69.5881736 L1237.60776,128.317958 L1199.66503,69.5881736 L1176.32936,69.5881736 L1176.32936,193.790134 L1197.88368,193.790134 Z M1343.65741,193.790134 L1376.43423,146.415958 L1409.38919,193.790134 L1435.21875,193.790134 L1389.97248,130.269703 L1433.4374,69.5881736 L1408.32038,69.5881736 L1377.14677,114.655742 L1346.1513,69.5881736 L1320.32174,69.5881736 L1363.60852,130.624566 L1318.54039,193.790134 L1343.65741,193.790134 Z" id="HCLVoltMX" fill="#000000" fill-rule="nonzero"></path>
                    <g id="Group-Copy" transform="translate(0.000000, 0.000000)">
                        <polygon id="Fill-1" fill="#12191F" points="10.5634203 267.071583 267.523103 267.071583 267.523103 10.5481213 10.5634203 10.5481213"></polygon>
                        <polygon id="Fill-2" fill="#93A2AD" points="191.126675 34.9144131 191.704444 34.271781 89.5843465 63.0427365 72.216965 124.498382 153.706207 101.540087"></polygon>
                        <polygon id="Fill-3" fill="#93A2AD" points="127.790211 200.287095 112.269582 246.482862 164.060417 189.417657"></polygon>
                        <g id="Group-6" transform="translate(48.741056, 99.081229)">
                            <mask id="mask-5" fill="white">
                                <use xlink:href="#path-4"></use>
                            </mask>
                            <g id="Clip-5"></g>
                            <polygon id="Fill-4" fill="url(#linearGradient-6)" mask="url(#mask-5)" points="17.4386134 47.604817 180.406544 0 135.920932 68.0768636 0 108.802356"></polygon>
                        </g>
                        <g id="Group-9">
                            <mask id="mask-8" fill="white">
                                <use xlink:href="#path-7"></use>
                            </mask>
                            <g id="Clip-8"></g>
                            <path d="M10.5634203,0 C4.7303228,0 0,4.71965876 0,10.5428538 L0,10.5428538 L0,10.5481213 L0,267.068949 C0,272.892144 4.72768459,277.614437 10.5581438,277.614437 L10.5581438,277.614437 L10.5634203,277.614437 L267.523103,277.614437 C273.353562,277.614437 278.086523,272.894778 278.086523,267.071583 L278.086523,267.071583 L278.086523,267.068949 L278.086523,10.5481213 C278.086523,4.72492623 273.358838,0 267.528379,0 L267.528379,0 L10.5634203,0 Z M10.5634203,267.068949 L267.523103,267.068949 L267.523103,10.5481213 L10.5634203,10.5481213 L10.5634203,267.068949 Z" id="Fill-7" fill="url(#linearGradient-9)" mask="url(#mask-8)"></path>
                        </g>
                        <g id="Group-12" transform="translate(175.932129, 167.547886)">
                            <mask id="mask-11" fill="white">
                                <use xlink:href="#path-10"></use>
                            </mask>
                            <g id="Clip-11"></g>
                            <path d="M42.3249129,0 C18.9872466,0 0,18.9523797 0,42.2530611 L0,42.2530611 C0,65.5537424 18.9872466,84.5061221 42.3249129,84.5061221 L42.3249129,84.5061221 L95.6907632,84.5061221 C119.028429,84.5061221 138.015676,65.5537424 138.015676,42.2530611 L138.015676,42.2530611 C138.015676,18.9523797 119.028429,0 95.6907632,0 L95.6907632,0 L42.3249129,0 Z" id="Fill-10" fill="url(#linearGradient-12)" mask="url(#mask-11)"></path>
                        </g>
                        <path d="M271.623156,242.86911 L218.254667,242.86911 C199.961271,242.86911 185.131855,228.064867 185.131855,209.799893 C185.131855,191.537553 199.961271,176.733311 218.254667,176.733311 L271.623156,176.733311 C289.916551,176.733311 304.745968,191.537553 304.745968,209.799893 C304.745968,228.064867 289.916551,242.86911 271.623156,242.86911" id="Fill-13" fill="#12191F"></path>
                        <g id="Group-17" transform="translate(215.806138, 197.319662)">
                            <mask id="mask-14" fill="white">
                                <use xlink:href="#path-13"></use>
                            </mask>
                            <g id="Clip-16"></g>
                            <path d="M50.2764984,0 L45.2823539,7.79586491 L40.4095674,0 L31.5741792,0 L40.6892184,13.6058913 L31.1784467,27.6884891 L39.8133304,27.6884891 L45.1636342,19.3053006 L50.4717265,27.6884891 L59.3071147,27.6884891 L49.8016194,13.487373 L58.9113822,0 L50.2764984,0 Z M21.3563654,0 L14.7370793,10.721948 L8.12570789,0 L0,0 L0,27.6884891 L7.52947088,27.6884891 L7.52947088,11.8254843 L14.5814245,22.6290781 L14.7370793,22.6290781 L21.8338826,11.7886119 L21.8338826,27.6884891 L29.479435,27.6884891 L29.479435,0 L21.3563654,0 Z" id="Fill-15" fill="url(#linearGradient-15)" mask="url(#mask-14)"></path>
                        </g>
                    </g>
                </g>
                <text id="Enterprise-App-Store" font-family="HelveticaNeue, Helvetica Neue" font-size="99.225" font-weight="normal" fill="#000000">
                    <tspan x="485.763075" y="2338.42506">Enterprise App Store</tspan>
                </text>
            </g>
        </g>
    </g>
</svg>