<?xml version="1.0" encoding="UTF-8"?>
<svg width="346px" height="67px" viewBox="0 0 346 67" version="1.1" xmlns="http://www.w3.org/2000/svg" xmlns:xlink="http://www.w3.org/1999/xlink">
    <title>konylogo</title>
    <defs>
        <polygon id="path-1" points="4.20407009 11.4890377 43.4920909 0 32.7675781 16.4298007 0 26.2585692"></polygon>
        <linearGradient x1="0.000611418209%" y1="49.9994362%" x2="100.00036%" y2="49.9994362%" id="linearGradient-3">
            <stop stop-color="#779CF4" offset="0%"></stop>
            <stop stop-color="#D693F9" offset="100%"></stop>
        </linearGradient>
        <path d="M2.54661069,0 C1.14037786,0 0,1.13905149 0,2.54443253 L0,2.54443253 L0,2.5457038 L0,64.4549318 C0,65.8603129 1.13974185,67 2.54533865,67 L2.54533865,67 L2.54661069,67 L64.4939969,67 C65.8995937,67 67.0406076,65.8609485 67.0406076,64.4555675 L67.0406076,64.4555675 L67.0406076,64.4549318 L67.0406076,2.5457038 C67.0406076,1.14032275 65.9008657,0 64.4952689,0 L64.4952689,0 L2.54661069,0 Z M2.54661069,64.4549318 L64.4939969,64.4549318 L64.4939969,2.5457038 L2.54661069,2.5457038 L2.54661069,64.4549318 Z" id="path-4"></path>
        <linearGradient x1="0%" y1="50.0001097%" x2="99.9997807%" y2="50.0001097%" id="linearGradient-6">
            <stop stop-color="#779CF4" offset="0%"></stop>
            <stop stop-color="#D693F9" offset="100%"></stop>
        </linearGradient>
        <path d="M10.2036152,0 C4.57741187,0 0,4.57400362 0,10.1974347 L0,10.1974347 C0,15.8208658 4.57741187,20.3948694 10.2036152,20.3948694 L10.2036152,20.3948694 L23.0689601,20.3948694 C28.6951634,20.3948694 33.2725753,15.8208658 33.2725753,10.1974347 L33.2725753,10.1974347 C33.2725753,4.57400362 28.6951634,0 23.0689601,0 L23.0689601,0 L10.2036152,0 Z" id="path-7"></path>
        <linearGradient x1="-0.000924417938%" y1="50.0000739%" x2="100%" y2="50.0000739%" id="linearGradient-9">
            <stop stop-color="#779CF4" offset="0%"></stop>
            <stop stop-color="#D693F9" offset="100%"></stop>
        </linearGradient>
        <path d="M12.1205694,0 L10.9165899,1.88146897 L9.74186711,0 L7.61184733,0 L9.80928487,3.28367186 L7.51644483,6.68239301 L9.59812734,6.68239301 L10.8879691,4.65917823 L12.1676346,6.68239301 L14.2976544,6.68239301 L12.0060864,3.25506845 L14.2022519,0 L12.1205694,0 Z M5.14855482,0 L3.55278904,2.58765547 L1.9589313,0 L0,0 L0,6.68239301 L1.81519153,6.68239301 L1.81519153,2.85398503 L3.51526405,5.46134507 L3.55278904,5.46134507 L5.26367384,2.84508619 L5.26367384,6.68239301 L7.1068501,6.68239301 L7.1068501,0 L5.14855482,0 Z" id="path-10"></path>
        <linearGradient x1="0.00154092527%" y1="50.0051051%" x2="100.002625%" y2="50.0051051%" id="linearGradient-12">
            <stop stop-color="#779CF4" offset="0%"></stop>
            <stop stop-color="#D693F9" offset="100%"></stop>
        </linearGradient>
    </defs>
    <g id="Page-1" stroke="none" stroke-width="1" fill="none" fill-rule="evenodd">
        <g id="Common" transform="translate(-718.000000, -3001.000000)">
            <g id="konylogo" transform="translate(718.000000, 3001.000000)">
                <path d="M91.282167,46.7696823 L91.282167,34.1373022 L105.625613,34.1373022 L105.625613,46.7696823 L110.90778,46.7696823 L110.90778,16.7945431 L105.625613,16.7945431 L105.625613,29.2556367 L91.282167,29.2556367 L91.282167,16.7945431 L86,16.7945431 L86,46.7696823 L91.282167,46.7696823 Z M131.878985,47.2835418 C137.504707,47.2835418 140.940263,45.2281037 144.075208,41.97366 L140.682596,38.5479298 C138.10593,40.9459409 135.743985,42.4018763 132.050763,42.4018763 C126.296207,42.4018763 122.130595,37.6486756 122.130595,31.7821127 L122.130595,31.6964694 C122.130595,25.8299065 126.339151,21.1195275 132.050763,21.1195275 C135.486318,21.1195275 138.062985,22.6182844 140.467874,24.8450091 L143.860486,20.948241 C140.983208,18.2076568 137.633541,16.2806836 132.093707,16.2806836 C122.989484,16.2806836 116.590761,23.2606089 116.590761,31.7821127 L116.590761,31.867756 C116.590761,40.474903 123.118317,47.2835418 131.878985,47.2835418 Z M169.985025,46.7696823 L169.985025,41.97366 L154.181468,41.97366 L154.181468,16.7945431 L148.899301,16.7945431 L148.899301,46.7696823 L169.985025,46.7696823 Z M201.534879,46.9837904 L213.988768,16.7945431 L208.277157,16.7945431 L199.258823,39.8325786 L190.197544,16.7945431 L184.3571,16.7945431 L196.853934,46.9837904 L201.534879,46.9837904 Z M225.598084,47.2835418 C232.598029,47.2835418 237.751363,41.9308384 237.751363,35.5075943 L237.751363,35.421951 C237.751363,28.9558853 232.640973,23.6888251 225.683973,23.6888251 C218.726972,23.6888251 213.573639,29.0415285 213.573639,35.5075943 L213.573639,35.5932375 C213.573639,42.0164816 218.684028,47.2835418 225.598084,47.2835418 Z M225.683973,42.7444493 C221.647195,42.7444493 218.769917,39.447184 218.769917,35.5075943 L218.769917,35.421951 C218.769917,31.4823613 221.432473,28.2279176 225.598084,28.2279176 C229.677807,28.2279176 232.555085,31.5251829 232.555085,35.5075943 L232.555085,35.5932375 C232.555085,39.4900056 229.892529,42.7444493 225.683973,42.7444493 Z M247.814678,46.7696823 L247.814678,15.5098943 L242.6184,15.5098943 L242.6184,46.7696823 L247.814678,46.7696823 Z M261.485327,47.1550769 C263.460772,47.1550769 264.877939,46.7268606 266.166272,45.998893 L266.166272,41.7595519 C265.135605,42.2734114 264.104939,42.5303412 262.945439,42.5303412 C261.184716,42.5303412 260.154049,41.7167302 260.154049,39.7041138 L260.154049,28.6133123 L266.252161,28.6133123 L266.252161,24.159863 L260.154049,24.159863 L260.154049,17.9507271 L254.957771,17.9507271 L254.957771,24.159863 L252.080493,24.159863 L252.080493,28.6133123 L254.957771,28.6133123 L254.957771,40.5177247 C254.957771,45.4850334 257.663271,47.1550769 261.485327,47.1550769 Z M288.783681,46.7696823 L288.783681,25.3588686 L298.188515,39.4043624 L298.360293,39.4043624 L307.851016,25.2732253 L307.851016,46.7696823 L313.133183,46.7696823 L313.133183,16.7945431 L307.50746,16.7945431 L298.360293,30.9685018 L289.213126,16.7945431 L283.587403,16.7945431 L283.587403,46.7696823 L288.783681,46.7696823 Z M323.926554,46.7696823 L331.828332,35.3363078 L339.773055,46.7696823 L346,46.7696823 L335.09211,31.4395397 L345.570556,16.7945431 L339.515388,16.7945431 L332.00011,27.6712365 L324.527776,16.7945431 L318.300831,16.7945431 L328.736332,31.5251829 L317.871387,46.7696823 L323.926554,46.7696823 Z" id="HCLVoltMX" fill="#000000" fill-rule="nonzero"></path>
                <g id="Group-Copy">
                    <polygon id="Fill-1" fill="#12191F" points="2.54661069 64.4555675 64.4939969 64.4555675 64.4939969 2.5457038 2.54661069 2.5457038"></polygon>
                    <polygon id="Fill-2" fill="#93A2AD" points="46.076481 8.42631135 46.2157686 8.27121728 21.5968359 15.2148548 17.4099383 30.0466781 37.0552207 24.5058791"></polygon>
                    <polygon id="Fill-3" fill="#93A2AD" points="30.8074383 48.3376711 27.0657524 59.486646 39.5513953 45.7144203"></polygon>
                    <g id="Group-6" transform="translate(11.750408, 23.912454)">
                        <mask id="mask-2" fill="white">
                            <use xlink:href="#path-1"></use>
                        </mask>
                        <g id="Clip-5"></g>
                        <polygon id="Fill-4" fill="url(#linearGradient-3)" mask="url(#mask-2)" points="4.20407009 11.4890377 43.4920909 0 32.7675781 16.4298007 0 26.2585692"></polygon>
                    </g>
                    <g id="Group-9">
                        <mask id="mask-5" fill="white">
                            <use xlink:href="#path-4"></use>
                        </mask>
                        <g id="Clip-8"></g>
                        <path d="M2.54661069,0 C1.14037786,0 0,1.13905149 0,2.54443253 L0,2.54443253 L0,2.5457038 L0,64.4549318 C0,65.8603129 1.13974185,67 2.54533865,67 L2.54533865,67 L2.54661069,67 L64.4939969,67 C65.8995937,67 67.0406076,65.8609485 67.0406076,64.4555675 L67.0406076,64.4555675 L67.0406076,64.4549318 L67.0406076,2.5457038 C67.0406076,1.14032275 65.9008657,0 64.4952689,0 L64.4952689,0 L2.54661069,0 Z M2.54661069,64.4549318 L64.4939969,64.4549318 L64.4939969,2.5457038 L2.54661069,2.5457038 L2.54661069,64.4549318 Z" id="Fill-7" fill="url(#linearGradient-6)" mask="url(#mask-5)"></path>
                    </g>
                    <g id="Group-12" transform="translate(42.413407, 40.436328)">
                        <mask id="mask-8" fill="white">
                            <use xlink:href="#path-7"></use>
                        </mask>
                        <g id="Clip-11"></g>
                        <path d="M10.2036152,0 C4.57741187,0 0,4.57400362 0,10.1974347 L0,10.1974347 C0,15.8208658 4.57741187,20.3948694 10.2036152,20.3948694 L10.2036152,20.3948694 L23.0689601,20.3948694 C28.6951634,20.3948694 33.2725753,15.8208658 33.2725753,10.1974347 L33.2725753,10.1974347 C33.2725753,4.57400362 28.6951634,0 23.0689601,0 L23.0689601,0 L10.2036152,0 Z" id="Fill-10" fill="url(#linearGradient-9)" mask="url(#mask-8)"></path>
                    </g>
                    <path d="M65.4824304,58.6144962 L52.6164494,58.6144962 C48.20631,58.6144962 44.6312603,55.041612 44.6312603,50.6335082 C44.6312603,46.22604 48.20631,42.6531559 52.6164494,42.6531559 L65.4824304,42.6531559 C69.8925698,42.6531559 73.4676195,46.22604 73.4676195,50.6335082 C73.4676195,55.041612 69.8925698,58.6144962 65.4824304,58.6144962" id="Fill-13" fill="#12191F"></path>
                    <g id="Group-17" transform="translate(52.026162, 47.621505)">
                        <mask id="mask-11" fill="white">
                            <use xlink:href="#path-10"></use>
                        </mask>
                        <g id="Clip-16"></g>
                        <path d="M12.1205694,0 L10.9165899,1.88146897 L9.74186711,0 L7.61184733,0 L9.80928487,3.28367186 L7.51644483,6.68239301 L9.59812734,6.68239301 L10.8879691,4.65917823 L12.1676346,6.68239301 L14.2976544,6.68239301 L12.0060864,3.25506845 L14.2022519,0 L12.1205694,0 Z M5.14855482,0 L3.55278904,2.58765547 L1.9589313,0 L0,0 L0,6.68239301 L1.81519153,6.68239301 L1.81519153,2.85398503 L3.51526405,5.46134507 L3.55278904,5.46134507 L5.26367384,2.84508619 L5.26367384,6.68239301 L7.1068501,6.68239301 L7.1068501,0 L5.14855482,0 Z" id="Fill-15" fill="url(#linearGradient-12)" mask="url(#mask-11)"></path>
                    </g>
                </g>
            </g>
        </g>
    </g>
</svg>